<?xml version="1.0" encoding="utf-8"?>
<!-- Generator: Adobe Illustrator 16.0.0, SVG Export Plug-In . SVG Version: 6.00 Build 0)  -->
<!DOCTYPE svg PUBLIC "-//W3C//DTD SVG 1.1//EN" "http://www.w3.org/Graphics/SVG/1.1/DTD/svg11.dtd">
<svg version="1.1" id="Capa_1" xmlns="http://www.w3.org/2000/svg" xmlns:xlink="http://www.w3.org/1999/xlink" x="0px" y="0px"
	 width="512px" height="479.25px" viewBox="0 16.375 512 479.25" enable-background="new 0 16.375 512 479.25" xml:space="preserve"
	>
<g>
	<path fill="#212529" d="M283.855,16.375c-77.124,0-145.383,38.501-186.7,97.255c8.551,5.578,16.886,13.228,24.948,23.063
		c30.824-46.089,80.662-78.426,138.327-85.377l23.422,39.636l23.423-39.637c88.64,10.683,159.097,81.136,169.784,169.775
		l-39.643,23.426l39.644,23.426c-7.145,59.262-41.084,110.282-89.233,140.86c3.067,6.991,4.795,14.141,5.101,21.511
		c0.225,5.386-0.331,10.476-1.448,15.307C463.15,407.108,512,331.422,512,244.52C512,118.717,409.658,16.375,283.855,16.375z
		 M342.075,392.106c-52.593-42.268-67.3-21.49-91.163,2.369c-16.66,16.666-58.82-18.136-95.223-54.54
		c-36.406-36.41-71.201-78.563-54.542-95.226c23.865-23.86,44.636-38.576,2.357-91.154c-42.265-52.598-70.44-12.217-93.556,10.901
		C-16.74,191.135,8.542,290.555,106.8,388.828c98.272,98.261,197.691,123.525,224.362,96.856
		C354.276,462.566,394.669,434.395,342.075,392.106z M181.899,280.223c0-46.749,54.73-55.077,54.73-73.32
		c0-8.852-7.086-12.568-13.64-12.568c-12.044,0-18.768,13.455-18.768,13.455l-23.024-15.406c0,0,11.69-27.273,44.629-27.273
		c20.719,0,43.211,11.867,43.211,38.785c0,39.494-51.006,47.112-51.893,63.405h53.844v26.563h-87.67
		C182.431,288.905,181.899,284.48,181.899,280.223z M283.936,244.454l48.885-77.223h37.899v70.314h15.052v25.676H370.72v30.644
		h-30.644v-30.644h-56.141V244.454L283.936,244.454z M340.076,237.544v-28.336c0-6.909,1.064-14.172,1.064-14.172h-0.355
		c0,0-2.652,7.795-6.199,13.108l-19.122,29.047v0.355L340.076,237.544L340.076,237.544z"/>
</g>
</svg>
